<?xml version="1.0" encoding="UTF-8"?>
<svg xmlns="http://www.w3.org/2000/svg" xmlns:xlink="http://www.w3.org/1999/xlink" width="2400" height="2400" viewBox="0 0 2400 2400">
<rect x="-240" y="-240" width="2880" height="2880" fill="rgb(100%, 100%, 100%)" fill-opacity="1"/>
<path fill-rule="evenodd" fill="rgb(87.889099%, 99.609375%, 100%)" fill-opacity="1" d="M 481.683594 1144.78125 C 452.4375 1182.921875 411.851562 1258.050781 410.484375 1296.589844 C 408.582031 1350.339844 500.820312 1265.679688 526.253906 1247.710938 C 597.710938 1198.160156 691.105469 1149.488281 688.140625 1060.898438 C 687.132812 1030.890625 631.867188 914.78125 590.710938 951.160156 C 565.421875 973.511719 535.90625 1064.339844 509.167969 1106.109375 C 500.445312 1119.738281 491.535156 1131.679688 481.683594 1144.78125 "/>
<path fill-rule="evenodd" fill="rgb(87.889099%, 99.609375%, 100%)" fill-opacity="1" d="M 975.609375 716.25 C 586.207031 885.671875 881.488281 1096.179688 592.769531 1261.558594 C 512.492188 1307.539062 282.1875 1427.597656 373.753906 1533.84375 C 424.484375 1592.710938 580.246094 1612.992188 663.472656 1643.554688 C 801.621094 1694.285156 876.644531 1757.039062 997.027344 1814.921875 C 1313.898438 1967.273438 1662.25 1657.117188 1872.191406 1456.246094 C 1991.96875 1341.648438 2017.648438 1239.28125 1923.921875 1099.179688 C 1838.980469 972.238281 1677.171875 826.210938 1521.121094 771.25 C 1360.378906 714.640625 1139.710938 644.839844 975.609375 716.25 "/>
<path fill-rule="evenodd" fill="rgb(87.889099%, 99.609375%, 100%)" fill-opacity="1" d="M 1558.488281 679.53125 C 1558.179688 640.039062 1527.628906 575.179688 1448.480469 553.179688 C 1390.28125 538.441406 1292.148438 538.148438 1254.78125 556.589844 C 1212.410156 577.480469 1167.300781 625.460938 1278.160156 649.601562 C 1363.050781 668.070312 1347 654 1438.648438 690.660156 C 1514.261719 720.890625 1555.078125 730.828125 1558.488281 679.53125 "/>
<path fill-rule="evenodd" fill="rgb(87.889099%, 99.609375%, 100%)" fill-opacity="1" d="M 2018.53125 1580.777344 C 2045.960938 1545.515625 2066.800781 1494.378906 2018.410156 1492.585938 C 1981.820312 1492.550781 1902.910156 1514.476562 1859.859375 1539.417969 C 1811.058594 1567.691406 1741.050781 1620.824219 1813.511719 1617.359375 C 1869 1614.703125 1865.921875 1605.738281 1914.121094 1617.820312 C 1953.871094 1627.789062 1979.820312 1627.449219 2018.53125 1580.777344 "/>
<path fill-rule="evenodd" fill="rgb(24.705505%, 10.984802%, 18.821716%)" fill-opacity="1" d="M 1100.5 925.800781 L 1126.03125 985.078125 L 1282.300781 985.488281 L 1303.851562 924.300781 L 1100.5 925.800781 "/>
<path fill-rule="evenodd" fill="rgb(98.046875%, 37.255859%, 37.255859%)" fill-opacity="1" d="M 872.457031 1076.160156 L 703.976562 1149.519531 L 658.652344 1200.929688 C 612.765625 1318.109375 701.445312 1290.28125 811.089844 1265.179688 C 903.277344 1244.078125 932.714844 1235.699219 1018.078125 1201.03125 C 1210.460938 1122.890625 1118.261719 972.121094 872.457031 1076.160156 "/>
<path fill-rule="evenodd" fill="rgb(98.046875%, 37.255859%, 37.255859%)" fill-opacity="1" d="M 1506.171875 1098.550781 L 1746.511719 1227.921875 L 1784.171875 1285.179688 C 1813.160156 1407.636719 1729.269531 1367.640625 1624.230469 1327.410156 C 1535.910156 1293.578125 1424.121094 1248.058594 1344.46875 1201.761719 C 1164.941406 1097.398438 1277.390625 961.050781 1506.171875 1098.550781 "/>
<path fill-rule="evenodd" fill="rgb(20.776367%, 39.598083%, 56.834412%)" fill-opacity="1" d="M 1133.648438 1543.636719 C 1060.960938 1558.246094 934.078125 1652.839844 917.609375 1777.132812 C 917.328125 1779.238281 917.074219 1781.378906 916.832031 1783.535156 L 1221.25 1783.535156 C 1243.300781 1662.375 1247.859375 1520.683594 1133.648438 1543.636719 "/>
<path fill-rule="evenodd" fill="rgb(20.776367%, 39.598083%, 56.834412%)" fill-opacity="1" d="M 1259.898438 1543.636719 C 1332.589844 1558.246094 1459.46875 1652.839844 1475.941406 1777.132812 C 1476.21875 1779.238281 1476.46875 1781.378906 1476.71875 1783.535156 L 1172.300781 1783.535156 C 1150.25 1662.375 1145.691406 1520.683594 1259.898438 1543.636719 "/>
<path fill-rule="evenodd" fill="rgb(98.046875%, 37.255859%, 37.255859%)" fill-opacity="1" d="M 1457.941406 1682.769531 C 1299.929688 1761.449219 1130.199219 1762.050781 948.230469 1680.953125 C 952.09375 1672.941406 995.195312 1119.359375 994.601562 1067.421875 L 1013.140625 1040.921875 L 1057.871094 1039.550781 L 1207.949219 1031.070312 L 1226.320312 1031.070312 L 1348.289062 1041.371094 L 1393.019531 1042.738281 L 1457.941406 1682.769531 "/>
<path fill-rule="evenodd" fill="rgb(98.046875%, 37.255859%, 37.255859%)" fill-opacity="1" d="M 1686.519531 1334.191406 C 1896.601562 1494.230469 1736.980469 1023.011719 1712.890625 908.691406 L 1645.199219 915 L 1655.691406 1185.148438 L 1654.710938 1304.488281 L 1686.519531 1334.191406 "/>
<path fill-rule="evenodd" fill="rgb(20.776367%, 39.598083%, 56.834412%)" fill-opacity="1" d="M 939.554688 1706.253906 L 946.214844 1660.03125 L 1010.019531 1038.960938 C 1037.109375 1038.140625 1058.410156 1036.640625 1087.179688 1036.871094 L 1086.171875 1171.269531 L 1315.871094 1171.269531 L 1316.878906 1036.871094 C 1345.640625 1036.640625 1366.941406 1038.140625 1394.039062 1038.960938 L 1455.820312 1660.03125 L 1462.480469 1706.253906 L 1460.53125 1706.324219 L 1462.480469 1725.515625 L 1201.019531 1775.804688 L 939.554688 1725.515625 L 941.503906 1706.324219 L 939.554688 1706.253906 "/>
<path fill-rule="evenodd" fill="rgb(94.921875%, 74.414062%, 59.959412%)" fill-opacity="1" d="M 1142.269531 1042.800781 L 1206.941406 1034.890625 L 1261.78125 1034.378906 L 1265.28125 1041.898438 L 1267.421875 1044.480469 L 1267.910156 1034.578125 L 1271 971.550781 L 1210.21875 939.449219 L 1137.078125 1006.261719 L 1141.140625 1034.839844 L 1142.269531 1042.800781 "/>
<path fill-rule="evenodd" fill="rgb(94.921875%, 74.414062%, 59.959412%)" fill-opacity="1" d="M 1142.269531 1042.800781 L 1200.949219 1024.398438 L 1261.398438 1025.390625 L 1265.738281 1039.648438 L 1267.421875 1044.480469 C 1267.460938 1044.578125 1267.339844 1044.730469 1267.300781 1044.808594 C 1262.949219 1052.898438 1208.871094 1109.71875 1142.269531 1042.800781 "/>
<path fill-rule="evenodd" fill="rgb(79.296875%, 85.9375%, 35.276794%)" fill-opacity="1" d="M 1311.589844 767.449219 C 1317.21875 755.28125 1321.949219 746.441406 1328.789062 740.660156 C 1336.300781 734.320312 1346.351562 731.671875 1362.890625 732.390625 C 1353.289062 754.589844 1341.230469 777.589844 1311.589844 767.449219 "/>
<path fill-rule="evenodd" fill="rgb(79.296875%, 85.9375%, 35.276794%)" fill-opacity="1" d="M 1312.390625 765.738281 L 1287.21875 799.761719 L 1291.691406 799.898438 L 1318.230469 765.511719 L 1312.390625 765.738281 "/>
<path fill-rule="evenodd" fill="rgb(24.705505%, 10.984802%, 18.821716%)" fill-opacity="1" d="M 1103.570312 827.839844 C 1088.589844 858.179688 1104.300781 967.671875 1113.140625 930.640625 L 1122.480469 891.488281 L 1123.039062 847.371094 L 1123.339844 820.378906 L 1103.570312 827.839844 "/>
<path fill-rule="evenodd" fill="rgb(98.826599%, 89.0625%, 76.951599%)" fill-opacity="1" d="M 1297.199219 922.550781 C 1292.53125 947.011719 1288.78125 975.078125 1277.140625 996.679688 C 1256.269531 1035.398438 1216.109375 1057.441406 1167.371094 1034.699219 C 1165.910156 1034.019531 1164.488281 1033.300781 1163.128906 1032.53125 C 1131.820312 1014.820312 1120.671875 975.808594 1117.828125 949.378906 C 1117.609375 947.328125 1117.019531 945.390625 1116.589844 943.480469 C 1108.738281 903.058594 1104.410156 873.679688 1117.789062 843.140625 C 1141.179688 789.691406 1237.910156 755.871094 1278.949219 820.738281 C 1300.25 854.410156 1296.300781 884.75 1297.199219 922.550781 "/>
<path fill-rule="evenodd" fill="rgb(24.705505%, 10.984802%, 18.821716%)" fill-opacity="1" d="M 1297.019531 906.898438 C 1296.859375 890.800781 1296.101562 864.589844 1291.851562 849.480469 L 1302.5 856.539062 L 1307.648438 895.890625 C 1305.128906 898.039062 1305.210938 899.300781 1302.589844 904.449219 C 1302.21875 905.179688 1297.398438 906.128906 1297.019531 906.898438 "/>
<path fill-rule="evenodd" fill="rgb(24.705505%, 10.984802%, 18.821716%)" fill-opacity="1" d="M 1288.890625 850.449219 C 1256.019531 800.359375 1177.769531 829.28125 1128.511719 837.871094 C 1074.539062 878.148438 1077.238281 755.769531 1135.53125 721.859375 C 1147.070312 715.148438 1161.710938 771.460938 1156.660156 752.289062 C 1150.800781 730.039062 1173.238281 712.621094 1249 759.828125 C 1298.800781 787.339844 1311.808594 851.390625 1307.03125 891.148438 L 1288.890625 850.449219 "/>
<path fill-rule="evenodd" fill="rgb(24.705505%, 10.984802%, 18.821716%)" fill-opacity="1" d="M 1282.378906 826.53125 C 1283.140625 826.101562 1262.871094 886.46875 1296.960938 902.5 L 1298.449219 888.558594 L 1297.171875 853.011719 L 1282.378906 826.53125 "/>
<path fill-rule="evenodd" fill="rgb(98.826599%, 89.0625%, 76.951599%)" fill-opacity="1" d="M 1295.648438 942.828125 L 1280.761719 947.421875 L 1284.820312 931.210938 C 1286.148438 928.378906 1292.621094 913.648438 1298.101562 902.859375 C 1318.910156 861.898438 1340.808594 925.238281 1295.648438 942.828125 "/>
<path fill-rule="evenodd" fill="rgb(24.705505%, 10.984802%, 18.821716%)" fill-opacity="1" d="M 1283.761719 797.421875 C 1243.230469 827.609375 1154.480469 893.070312 1099.929688 847.171875 L 1093.128906 831.230469 L 1131.691406 777.941406 L 1178.019531 780.628906 C 1178.019531 780.628906 1219.78125 783.949219 1224.289062 784.261719 C 1228.808594 784.570312 1283.761719 797.421875 1283.761719 797.421875 "/>
<path fill-rule="evenodd" fill="rgb(24.705505%, 10.984802%, 18.821716%)" fill-opacity="1" d="M 1210.011719 797.230469 C 1227.070312 825.269531 1264.480469 886.148438 1295.140625 853.851562 L 1299.871094 841.550781 L 1285.828125 794.980469 L 1263.011719 793.039062 C 1263.011719 793.039062 1242.371094 792.019531 1240.148438 791.859375 C 1237.921875 791.710938 1210.011719 797.230469 1210.011719 797.230469 "/>
<path fill-rule="evenodd" fill="rgb(100%, 87.109375%, 54.101562%)" fill-opacity="1" d="M 1192.339844 816.371094 L 1303.839844 783.019531 L 1289.570312 683.949219 L 1122.25 678.429688 L 1094.191406 779.21875 L 1192.339844 816.371094 "/>
<path fill-rule="evenodd" fill="rgb(96.875%, 78.90625%, 32.93457%)" fill-opacity="1" d="M 1299.140625 750.371094 L 1104.148438 743.449219 L 1094.191406 779.21875 L 1303.839844 783.019531 L 1299.140625 750.371094 "/>
<path fill-rule="evenodd" fill="rgb(100%, 87.109375%, 54.101562%)" fill-opacity="1" d="M 984.460938 836.378906 L 1415.519531 846.988281 L 1303.839844 783.019531 L 1094.191406 779.21875 L 984.460938 836.378906 "/>
<path fill-rule="evenodd" fill="rgb(98.826599%, 89.0625%, 76.951599%)" fill-opacity="1" d="M 1108.761719 942.828125 L 1123.648438 947.421875 L 1119.589844 931.210938 C 1118.269531 928.378906 1111.800781 913.648438 1106.308594 902.859375 C 1085.5 861.898438 1063.601562 925.238281 1108.761719 942.828125 "/>
<path fill-rule="evenodd" fill="rgb(81.25%, 52.929688%, 32.542419%)" fill-opacity="1" d="M 1739.78125 959.449219 L 1717.808594 905.359375 C 1739.851562 882.671875 1745.851562 872.679688 1747.058594 841.050781 L 1750.28125 825.589844 C 1771.769531 769.359375 1766.078125 771.351562 1756.910156 767.421875 C 1753.269531 765.859375 1756.019531 764.941406 1749.128906 756.679688 C 1735.890625 732.160156 1730.070312 749.441406 1721.851562 744.378906 C 1714.679688 739.96875 1714.261719 730.550781 1705.269531 732.648438 L 1705.421875 730.109375 L 1696.699219 741.679688 L 1684.289062 761.230469 L 1683.148438 764.96875 L 1672.671875 774.828125 L 1649.359375 799.570312 L 1641.851562 803.699219 L 1633.46875 807.128906 L 1637.410156 798.160156 C 1638.988281 793.460938 1639.910156 789.699219 1641.210938 786.769531 C 1647.191406 773.261719 1646.171875 742.488281 1618.488281 755.410156 L 1614.210938 771.050781 C 1614.210938 771.050781 1610.53125 786.730469 1609.910156 789.53125 C 1609.289062 792.320312 1600.441406 814.078125 1600.441406 814.078125 L 1603.351562 832.46875 L 1624.21875 881 L 1638.859375 908.839844 L 1632.078125 978.96875 L 1739.78125 959.449219 "/>
<path fill-rule="evenodd" fill="rgb(59.959412%, 59.959412%, 59.959412%)" fill-opacity="1" d="M 1607.820312 652.851562 L 1591.371094 671.800781 L 1661.578125 732.769531 L 1678.03125 713.820312 L 1607.820312 652.851562 "/>
<path fill-rule="evenodd" fill="rgb(73.631287%, 16.479492%, 20.384216%)" fill-opacity="1" d="M 1666.460938 712.890625 L 1649.03125 732.949219 C 1646.550781 735.808594 1646.859375 740.191406 1649.71875 742.671875 L 1775.660156 852.03125 C 1778.519531 854.511719 1782.890625 854.199219 1785.371094 851.339844 L 1802.789062 831.28125 C 1805.28125 828.421875 1804.96875 824.050781 1802.109375 821.570312 L 1676.171875 712.210938 C 1673.308594 709.71875 1668.941406 710.03125 1666.460938 712.890625 "/>
<path fill-rule="evenodd" fill="rgb(90.234375%, 90.234375%, 90.234375%)" fill-opacity="1" d="M 1663.910156 701.558594 C 1649.359375 718.320312 1623.75 720.121094 1607 705.570312 L 1535.671875 643.628906 C 1518.921875 629.089844 1517.109375 603.46875 1531.660156 586.71875 L 1663.910156 701.558594 "/>
<path fill-rule="evenodd" fill="rgb(70.117188%, 70.117188%, 70.117188%)" fill-opacity="1" d="M 1704.730469 631 L 1727.71875 641.058594 L 1690.460938 726.25 L 1667.46875 716.199219 L 1704.730469 631 "/>
<path fill-rule="evenodd" fill="rgb(93.75%, 29.417419%, 29.026794%)" fill-opacity="1" d="M 1677.53125 710.398438 L 1701.871094 721.039062 C 1705.339844 722.558594 1706.941406 726.640625 1705.421875 730.109375 L 1638.589844 882.929688 C 1637.070312 886.398438 1632.988281 888 1629.519531 886.480469 L 1605.179688 875.828125 C 1601.710938 874.320312 1600.109375 870.238281 1601.628906 866.761719 L 1668.460938 713.949219 C 1669.96875 710.480469 1674.058594 708.878906 1677.53125 710.398438 "/>
<path fill-rule="evenodd" fill="rgb(90.234375%, 90.234375%, 90.234375%)" fill-opacity="1" d="M 1674.960938 699.070312 C 1695.289062 707.960938 1719.199219 698.601562 1728.089844 678.269531 L 1765.941406 591.71875 C 1774.828125 571.390625 1765.46875 547.480469 1745.140625 538.589844 L 1674.960938 699.070312 "/>
<path fill-rule="evenodd" fill="rgb(70.117188%, 70.117188%, 70.117188%)" fill-opacity="1" d="M 1681.539062 754.019531 C 1689.5 752.21875 1694.488281 744.320312 1692.699219 736.359375 C 1690.910156 728.410156 1683 723.410156 1675.050781 725.210938 C 1667.089844 727 1662.101562 734.898438 1663.890625 742.859375 C 1665.679688 750.808594 1673.589844 755.808594 1681.539062 754.019531 "/>
<path fill-rule="evenodd" fill="rgb(50.193787%, 50.193787%, 50.193787%)" fill-opacity="1" d="M 1679.859375 746.570312 C 1683.710938 745.699219 1686.121094 741.890625 1685.261719 738.039062 C 1684.390625 734.199219 1680.570312 731.789062 1676.730469 732.648438 C 1672.878906 733.519531 1670.46875 737.339844 1671.339844 741.179688 C 1672.199219 745.019531 1676.019531 747.441406 1679.859375 746.570312 "/>
<path fill-rule="evenodd" fill="rgb(81.25%, 52.929688%, 32.542419%)" fill-opacity="1" d="M 1633.121094 794.738281 C 1647.378906 788.628906 1644.800781 775.730469 1643.609375 765.238281 L 1629.421875 759.851562 C 1629.421875 759.851562 1626.230469 771.648438 1626.421875 772.578125 C 1626.609375 773.519531 1633.121094 794.738281 1633.121094 794.738281 "/>
<path fill-rule="evenodd" fill="rgb(81.25%, 52.929688%, 32.542419%)" fill-opacity="1" d="M 1761.289062 783.808594 L 1743.410156 802.621094 L 1729.179688 804.871094 L 1719.808594 809.550781 L 1710.261719 812.359375 L 1705.578125 811.050781 L 1701.839844 805.429688 L 1699.78125 803.179688 L 1696.03125 804.5 L 1690.601562 800 L 1688.359375 792.511719 L 1686.480469 787.460938 L 1690.601562 769.289062 L 1701.839844 745.140625 L 1706.140625 736.519531 L 1712.140625 738.960938 L 1725.808594 750.761719 L 1761.378906 780.710938 L 1761.289062 783.808594 "/>
<path fill-rule="evenodd" fill="rgb(72.851562%, 43.920898%, 23.535156%)" fill-opacity="1" d="M 1719.808594 809.550781 L 1710.261719 812.359375 L 1705.578125 811.050781 L 1701.839844 805.429688 L 1699.78125 803.179688 L 1696.03125 804.5 L 1690.601562 800 L 1688.359375 792.511719 L 1686.480469 787.460938 L 1688.921875 776.710938 L 1686.109375 774.269531 L 1684.96875 776.871094 L 1638.589844 882.929688 C 1637.070312 886.398438 1632.988281 888 1629.519531 886.480469 L 1626.371094 885.101562 L 1630.140625 892.261719 C 1639.160156 894.710938 1642.871094 891.171875 1649.878906 875.25 L 1685.949219 793.320312 L 1687.871094 802.710938 L 1693.679688 809.261719 L 1698.359375 809.921875 L 1705.101562 813.851562 L 1709.21875 815.628906 L 1721.949219 817.03125 L 1737.871094 824.898438 L 1748.640625 833.488281 L 1749.511719 829.320312 L 1724.210938 807.351562 L 1719.808594 809.550781 "/>
<path fill-rule="evenodd" fill="rgb(66.209412%, 82.03125%, 40.771484%)" fill-opacity="1" d="M 1450.398438 1551.78125 C 1467.621094 1532.296875 1483.070312 1511.164062 1486.390625 1490.796875 C 1492.191406 1455.328125 1465.359375 1447.550781 1438.339844 1474.574219 L 1429.171875 1483.742188 C 1450.878906 1355.761719 1386.128906 1332.339844 1365.078125 1424.230469 C 1363.890625 1429.433594 1363 1434.285156 1362.378906 1438.871094 C 1358.210938 1469.785156 1366.191406 1488.570312 1374.988281 1520.816406 C 1353.230469 1506.914062 1338.21875 1504.851562 1330.121094 1509.253906 C 1318.621094 1515.507812 1321.070312 1534.8125 1337.910156 1551.78125 L 1450.398438 1551.78125 "/>
<path fill-rule="evenodd" fill="rgb(83.984375%, 100%, 58.006287%)" fill-opacity="1" d="M 1509.460938 1551.78125 C 1531.410156 1526.941406 1551.101562 1500 1555.339844 1474.035156 C 1562.730469 1428.816406 1528.53125 1418.898438 1494.078125 1453.351562 L 1482.390625 1465.039062 C 1510.070312 1301.878906 1427.511719 1272.03125 1400.691406 1389.171875 C 1399.171875 1395.800781 1398.03125 1401.988281 1397.238281 1407.835938 C 1391.921875 1447.246094 1402.101562 1471.195312 1413.308594 1512.304688 C 1385.570312 1494.582031 1366.441406 1491.949219 1356.109375 1497.5625 C 1341.449219 1505.535156 1344.570312 1530.144531 1366.039062 1551.78125 L 1509.460938 1551.78125 "/>
<path fill-rule="evenodd" fill="rgb(66.209412%, 82.03125%, 40.771484%)" fill-opacity="1" d="M 1469.148438 1551.78125 C 1457.28125 1538.347656 1446.621094 1523.777344 1444.328125 1509.734375 C 1440.339844 1485.277344 1458.828125 1479.914062 1477.460938 1498.546875 L 1483.78125 1504.867188 C 1468.808594 1416.628906 1513.460938 1400.484375 1527.96875 1463.835938 C 1528.789062 1467.425781 1529.410156 1470.769531 1529.828125 1473.933594 C 1532.710938 1495.246094 1527.210938 1508.199219 1521.140625 1530.433594 C 1536.148438 1520.847656 1546.488281 1519.421875 1552.078125 1522.460938 C 1560.011719 1526.769531 1558.320312 1540.082031 1546.710938 1551.78125 L 1469.148438 1551.78125 "/>
<path fill-rule="evenodd" fill="rgb(94.921875%, 68.164062%, 18.431091%)" fill-opacity="1" d="M 1364.21875 1719.328125 L 1520.75 1719.328125 C 1538.070312 1705.796875 1549.261719 1684.726562 1549.261719 1661.171875 L 1549.261719 1568.269531 C 1549.261719 1567.695312 1549.25 1567.117188 1549.238281 1566.542969 L 1335.730469 1566.542969 C 1335.710938 1567.117188 1335.710938 1567.695312 1335.710938 1568.269531 L 1335.710938 1661.171875 C 1335.710938 1684.726562 1346.890625 1705.796875 1364.21875 1719.328125 "/>
<path fill-rule="evenodd" fill="rgb(94.921875%, 56.834412%, 10.984802%)" fill-opacity="1" d="M 1328.761719 1551.78125 L 1556.199219 1551.78125 C 1564.800781 1551.78125 1571.828125 1558.8125 1571.828125 1567.40625 C 1571.828125 1576.003906 1564.800781 1583.035156 1556.199219 1583.035156 L 1328.761719 1583.035156 C 1320.171875 1583.035156 1313.128906 1576.003906 1313.128906 1567.40625 C 1313.128906 1558.8125 1320.171875 1551.78125 1328.761719 1551.78125 "/>
<path fill-rule="evenodd" fill="rgb(100%, 91.796875%, 45.092773%)" fill-opacity="1" d="M 1359.148438 1719.328125 L 1525.820312 1719.328125 C 1534.410156 1719.328125 1541.441406 1726.359375 1541.441406 1734.953125 C 1541.441406 1743.550781 1534.410156 1750.578125 1525.820312 1750.578125 L 1359.148438 1750.578125 C 1350.550781 1750.578125 1343.519531 1743.550781 1343.519531 1734.953125 C 1343.519531 1726.359375 1350.550781 1719.328125 1359.148438 1719.328125 "/>
<path fill-rule="evenodd" fill="rgb(100%, 91.796875%, 45.092773%)" fill-opacity="1" d="M 1549.25 1661.765625 L 1335.710938 1661.765625 C 1335.761719 1667.527344 1336.46875 1673.136719 1337.78125 1678.523438 L 1547.179688 1678.523438 C 1548.488281 1673.136719 1549.210938 1667.527344 1549.25 1661.765625 "/>
<path fill-rule="evenodd" fill="rgb(100%, 91.796875%, 45.092773%)" fill-opacity="1" d="M 1335.710938 1651.179688 L 1549.261719 1651.179688 L 1549.261719 1604.300781 L 1335.710938 1604.300781 L 1335.710938 1651.179688 "/>
<path fill-rule="evenodd" fill="rgb(57.617188%, 72.851562%, 33.325195%)" fill-opacity="1" d="M 1415.238281 1551.78125 C 1408.179688 1543.796875 1401.851562 1535.132812 1400.488281 1526.785156 C 1398.109375 1512.25 1409.101562 1509.0625 1420.179688 1520.136719 L 1423.941406 1523.894531 C 1415.039062 1471.441406 1441.578125 1461.84375 1450.210938 1499.503906 C 1450.691406 1501.636719 1451.058594 1503.625 1451.308594 1505.503906 C 1453.019531 1518.175781 1449.75 1525.871094 1446.148438 1539.089844 C 1455.058594 1533.390625 1461.21875 1532.546875 1464.539062 1534.351562 C 1469.25 1536.914062 1468.25 1544.824219 1461.339844 1551.78125 L 1415.238281 1551.78125 "/>
<path fill-rule="evenodd" fill="rgb(98.046875%, 37.255859%, 37.255859%)" fill-opacity="1" d="M 760.128906 1211.140625 L 787.316406 1158.621094 C 813.5625 1111.050781 790.820312 1143.730469 829.28125 1082.898438 C 800.261719 1048.601562 798.464844 1077.609375 768.636719 1057.601562 C 768.328125 1057.390625 767.96875 1057.941406 767.628906 1058.121094 C 766.203125 1058.851562 764.71875 1059.621094 763.164062 1060.429688 C 530.609375 1168.730469 660.488281 1403.59375 760.128906 1211.140625 "/>
<path fill-rule="evenodd" fill="rgb(93.75%, 29.417419%, 29.026794%)" fill-opacity="1" d="M 865.226562 1237.589844 C 867.820312 1233.398438 877.820312 1194.699219 882.867188 1195.691406 C 927.636719 1204.488281 831.554688 1232.230469 795.761719 1192.71875 C 787.726562 1183.851562 793.046875 1154 796.554688 1141.339844 L 760.128906 1211.140625 C 726.984375 1274.648438 678.585938 1274.109375 651.789062 1250.679688 C 639.832031 1240.21875 640.007812 1222.519531 634.449219 1208.621094 C 631.644531 1225.898438 635.378906 1249.789062 640.144531 1263.679688 C 660.992188 1324.410156 857.242188 1250.5 865.226562 1237.589844 "/>
<path fill-rule="evenodd" fill="rgb(0.78125%, 75.193787%, 78.125%)" fill-opacity="1" d="M 560.597656 1750.582031 L 1944.710938 1750.582031 C 1957.898438 1750.582031 1968.679688 1761.363281 1968.679688 1774.546875 L 1968.679688 1774.550781 C 1968.679688 1787.730469 1957.898438 1798.515625 1944.710938 1798.515625 L 560.597656 1798.515625 C 547.414062 1798.515625 536.628906 1787.730469 536.628906 1774.550781 L 536.628906 1774.546875 C 536.628906 1761.363281 547.414062 1750.582031 560.597656 1750.582031 "/>
<path fill-rule="evenodd" fill="rgb(83.984375%, 100%, 58.006287%)" fill-opacity="1" d="M 1235.230469 1649.691406 C 1243.960938 1639.804688 1251.808594 1629.078125 1253.488281 1618.742188 C 1256.429688 1600.742188 1242.820312 1596.796875 1229.109375 1610.511719 L 1224.449219 1615.160156 C 1235.46875 1550.214844 1202.609375 1538.328125 1191.929688 1584.960938 C 1191.320312 1587.601562 1190.871094 1590.066406 1190.558594 1592.394531 C 1188.441406 1608.078125 1192.488281 1617.613281 1196.949219 1633.980469 C 1185.910156 1626.921875 1178.289062 1625.875 1174.191406 1628.109375 C 1168.351562 1631.285156 1169.589844 1641.078125 1178.140625 1649.691406 L 1235.230469 1649.691406 "/>
<path fill-rule="evenodd" fill="rgb(66.209412%, 82.03125%, 40.771484%)" fill-opacity="1" d="M 1265.199219 1649.691406 C 1276.339844 1637.085938 1286.328125 1623.414062 1288.480469 1610.234375 C 1292.230469 1587.289062 1274.878906 1582.257812 1257.390625 1599.738281 L 1251.460938 1605.671875 C 1265.511719 1522.867188 1223.609375 1507.71875 1210 1567.164062 C 1209.230469 1570.535156 1208.648438 1573.675781 1208.25 1576.640625 C 1205.550781 1596.640625 1210.710938 1608.796875 1216.398438 1629.660156 C 1202.328125 1620.664062 1192.621094 1619.328125 1187.378906 1622.175781 C 1179.929688 1626.222656 1181.519531 1638.714844 1192.421875 1649.691406 L 1265.199219 1649.691406 "/>
<path fill-rule="evenodd" fill="rgb(83.984375%, 100%, 58.006287%)" fill-opacity="1" d="M 1244.738281 1649.691406 C 1238.71875 1642.875 1233.308594 1635.480469 1232.148438 1628.355469 C 1230.121094 1615.941406 1239.5 1613.222656 1248.960938 1622.675781 L 1252.171875 1625.886719 C 1244.570312 1581.101562 1267.230469 1572.910156 1274.589844 1605.0625 C 1275.011719 1606.882812 1275.320312 1608.578125 1275.539062 1610.183594 C 1277 1621.003906 1274.210938 1627.574219 1271.128906 1638.859375 C 1278.738281 1633.992188 1283.988281 1633.269531 1286.828125 1634.8125 C 1290.851562 1637 1290 1643.753906 1284.101562 1649.691406 L 1244.738281 1649.691406 "/>
<path fill-rule="evenodd" fill="rgb(94.921875%, 56.834412%, 10.984802%)" fill-opacity="1" d="M 1191.488281 1734.722656 L 1270.929688 1734.722656 C 1279.71875 1727.855469 1285.398438 1717.160156 1285.398438 1705.207031 L 1285.398438 1658.0625 C 1285.398438 1657.769531 1285.390625 1657.476562 1285.390625 1657.183594 L 1177.03125 1657.183594 C 1177.019531 1657.476562 1177.019531 1657.769531 1177.019531 1658.0625 L 1177.019531 1705.207031 C 1177.019531 1717.160156 1182.699219 1727.855469 1191.488281 1734.722656 "/>
<path fill-rule="evenodd" fill="rgb(94.921875%, 68.164062%, 18.431091%)" fill-opacity="1" d="M 1173.488281 1649.691406 L 1288.921875 1649.691406 C 1293.28125 1649.691406 1296.851562 1653.261719 1296.851562 1657.621094 C 1296.851562 1661.984375 1293.28125 1665.554688 1288.921875 1665.554688 L 1173.488281 1665.554688 C 1169.128906 1665.554688 1165.558594 1661.984375 1165.558594 1657.621094 C 1165.558594 1653.261719 1169.128906 1649.691406 1173.488281 1649.691406 "/>
<path fill-rule="evenodd" fill="rgb(94.921875%, 68.164062%, 18.431091%)" fill-opacity="1" d="M 1188.921875 1734.722656 L 1273.5 1734.722656 C 1277.859375 1734.722656 1281.429688 1738.289062 1281.429688 1742.652344 C 1281.429688 1747.015625 1277.859375 1750.582031 1273.5 1750.582031 L 1188.921875 1750.582031 C 1184.550781 1750.582031 1180.988281 1747.015625 1180.988281 1742.652344 C 1180.988281 1738.289062 1184.550781 1734.722656 1188.921875 1734.722656 "/>
<path fill-rule="evenodd" fill="rgb(100%, 85.546875%, 41.967773%)" fill-opacity="1" d="M 1285.390625 1705.507812 L 1177.019531 1705.507812 C 1177.039062 1708.433594 1177.410156 1711.28125 1178.070312 1714.011719 L 1284.339844 1714.011719 C 1285.011719 1711.28125 1285.371094 1708.433594 1285.390625 1705.507812 "/>
<path fill-rule="evenodd" fill="rgb(100%, 85.546875%, 41.967773%)" fill-opacity="1" d="M 1177.019531 1700.136719 L 1285.398438 1700.136719 L 1285.398438 1676.347656 L 1177.019531 1676.347656 L 1177.019531 1700.136719 "/>
<path fill-rule="evenodd" fill="rgb(57.617188%, 72.851562%, 33.325195%)" fill-opacity="1" d="M 1217.378906 1649.691406 C 1213.800781 1645.640625 1210.589844 1641.242188 1209.890625 1637.007812 C 1208.691406 1629.628906 1214.269531 1628.011719 1219.890625 1633.632812 L 1221.800781 1635.539062 C 1217.28125 1608.921875 1230.75 1604.050781 1235.128906 1623.160156 C 1235.378906 1624.242188 1235.558594 1625.253906 1235.691406 1626.207031 C 1236.558594 1632.636719 1234.898438 1636.546875 1233.070312 1643.253906 C 1237.589844 1640.359375 1240.71875 1639.929688 1242.398438 1640.847656 C 1244.789062 1642.148438 1244.28125 1646.164062 1240.78125 1649.691406 L 1217.378906 1649.691406 "/>
<path fill-rule="evenodd" fill="rgb(0.78125%, 75.193787%, 78.125%)" fill-opacity="1" d="M 479.378906 1689.898438 L 756.867188 1689.898438 C 766.136719 1689.898438 773.714844 1697.480469 773.714844 1706.75 L 773.714844 1706.753906 C 773.714844 1716.019531 766.136719 1723.601562 756.867188 1723.601562 L 479.378906 1723.601562 C 470.113281 1723.601562 462.53125 1716.019531 462.53125 1706.753906 L 462.53125 1706.75 C 462.53125 1697.480469 470.113281 1689.898438 479.378906 1689.898438 "/>
<path fill-rule="evenodd" fill="rgb(0.78125%, 75.193787%, 78.125%)" fill-opacity="1" d="M 851.675781 1689.898438 L 822.167969 1689.898438 C 812.902344 1689.898438 805.320312 1697.480469 805.320312 1706.75 L 805.320312 1706.753906 C 805.320312 1716.019531 812.902344 1723.601562 822.167969 1723.601562 L 851.675781 1723.601562 C 860.941406 1723.601562 868.523438 1716.019531 868.523438 1706.753906 L 868.523438 1706.75 C 868.523438 1697.480469 860.941406 1689.898438 851.675781 1689.898438 "/>
<path fill-rule="evenodd" fill="rgb(0.78125%, 75.193787%, 78.125%)" fill-opacity="1" d="M 1444.21875 1827.707031 L 1845.480469 1827.707031 C 1854.738281 1827.707031 1862.320312 1835.289062 1862.320312 1844.554688 L 1862.320312 1844.5625 C 1862.320312 1853.828125 1854.738281 1861.410156 1845.480469 1861.410156 L 1444.21875 1861.410156 C 1434.949219 1861.410156 1427.371094 1853.828125 1427.371094 1844.5625 L 1427.371094 1844.554688 C 1427.371094 1835.289062 1434.949219 1827.707031 1444.21875 1827.707031 "/>
<path fill-rule="evenodd" fill="rgb(0.78125%, 75.193787%, 78.125%)" fill-opacity="1" d="M 1977.988281 1827.707031 L 1923.351562 1827.707031 C 1914.078125 1827.707031 1906.5 1835.289062 1906.5 1844.554688 L 1906.5 1844.5625 C 1906.5 1853.828125 1914.078125 1861.410156 1923.351562 1861.410156 L 1977.988281 1861.410156 C 1987.261719 1861.410156 1994.839844 1853.828125 1994.839844 1844.5625 L 1994.839844 1844.554688 C 1994.839844 1835.289062 1987.261719 1827.707031 1977.988281 1827.707031 "/>
<path fill-rule="evenodd" fill="rgb(0.78125%, 75.193787%, 78.125%)" fill-opacity="1" d="M 1884.28125 1717.441406 L 1696.96875 1717.441406 C 1692.328125 1717.441406 1688.539062 1721.234375 1688.539062 1725.867188 C 1688.539062 1730.503906 1692.328125 1734.292969 1696.96875 1734.292969 L 1884.28125 1734.292969 C 1888.921875 1734.292969 1892.710938 1730.503906 1892.710938 1725.867188 C 1892.710938 1721.234375 1888.921875 1717.441406 1884.28125 1717.441406 "/>
<path fill-rule="evenodd" fill="rgb(93.75%, 29.417419%, 29.026794%)" fill-opacity="1" d="M 1626.410156 1328.25 L 1435.078125 1210.75 L 1400.570312 1104.691406 L 1413.871094 1238.359375 C 1481.980469 1271.46875 1559.421875 1302.589844 1624.230469 1327.410156 C 1624.960938 1327.691406 1625.679688 1327.96875 1626.410156 1328.25 "/>
<path fill-rule="evenodd" fill="rgb(14.501953%, 32.151794%, 48.631287%)" fill-opacity="1" d="M 1193.210938 1463.582031 L 1208.820312 1463.582031 C 1252.398438 1463.582031 1288.058594 1427.929688 1288.058594 1384.339844 L 1288.058594 1305.109375 L 1113.980469 1305.109375 L 1113.980469 1384.339844 C 1113.980469 1427.929688 1149.628906 1463.582031 1193.210938 1463.582031 "/>
<path fill-rule="evenodd" fill="rgb(81.25%, 52.929688%, 32.542419%)" fill-opacity="1" d="M 810.132812 1126.429688 L 841.644531 1144.789062 C 876.898438 1149.871094 886.195312 1158.980469 914.066406 1164.308594 L 920.808594 1164.988281 L 928.484375 1169.851562 L 943.453125 1176.449219 L 960.019531 1170.679688 L 967.542969 1148.640625 L 974.871094 1130.890625 L 986.300781 1135.730469 L 987.277344 1121.609375 C 989.03125 1096.308594 965.613281 1100.441406 958.878906 1085.929688 C 957.191406 1082.300781 948.476562 1062.390625 948.476562 1062.390625 L 942.335938 1055.671875 L 907.058594 1048.949219 L 831.285156 1048.371094 L 805.554688 1045.660156 L 767.128906 1057.699219 C 746.503906 1077.578125 764.351562 1127.300781 799.359375 1136.441406 C 801.867188 1137.089844 795.578125 1135.929688 798.253906 1136.128906 C 806.964844 1136.820312 803.011719 1134.410156 810.132812 1126.429688 "/>
<path fill-rule="evenodd" fill="rgb(43.138123%, 69.334412%, 72.068787%)" fill-opacity="1" d="M 990.160156 1162.308594 C 978.132812 1136.710938 947.628906 1125.699219 922.019531 1137.71875 C 900.472656 1147.839844 889.257812 1171.050781 893.414062 1193.421875 L 872.320312 1197.96875 C 866.085938 1166 882.027344 1132.679688 912.851562 1118.199219 C 949.242188 1101.109375 992.59375 1116.761719 1009.679688 1153.148438 C 1011.851562 1157.769531 1013.488281 1162.5 1014.628906 1167.269531 L 993.535156 1171.820312 C 992.738281 1168.609375 991.617188 1165.429688 990.160156 1162.308594 "/>
<path fill-rule="evenodd" fill="rgb(29.417419%, 52.539062%, 54.881287%)" fill-opacity="1" d="M 1096.890625 1234.128906 L 1100.890625 1245.351562 L 1077.828125 1271.820312 L 1017.421875 1209.761719 L 1018.910156 1176.949219 L 1034.191406 1160.898438 L 1042.929688 1160.601562 C 1042.929688 1160.601562 1039.199219 1235.449219 1096.890625 1234.128906 "/>
<path fill-rule="evenodd" fill="rgb(43.138123%, 69.334412%, 72.068787%)" fill-opacity="1" d="M 1050.421875 1386.628906 L 847.449219 1463.234375 C 765.761719 1362.78125 763.503906 1290.011719 777.914062 1216.179688 L 839.953125 1202.800781 L 1034.191406 1160.898438 C 1032.460938 1198.730469 1040.558594 1241.648438 1100.890625 1245.351562 C 1112.320312 1279.179688 1113.019531 1292.621094 1116.019531 1328.160156 L 1092.25 1360.109375 L 1050.421875 1386.628906 "/>
<path fill-rule="evenodd" fill="rgb(54.101562%, 72.459412%, 74.804688%)" fill-opacity="1" d="M 1228.589844 1422.5 L 1081.179688 1386.460938 C 1018.730469 1371.199219 1058.160156 1272.128906 1127.628906 1314.421875 L 1245.738281 1386.328125 L 1257.71875 1411.832031 L 1251.640625 1419.207031 L 1228.589844 1422.5 "/>
<path fill-rule="evenodd" fill="rgb(29.417419%, 52.539062%, 54.881287%)" fill-opacity="1" d="M 1223.511719 1421.257812 L 1229.921875 1425.808594 L 1251.101562 1386.320312 L 1243.289062 1384.839844 C 1243.289062 1384.839844 1217.890625 1388.238281 1223.511719 1421.257812 "/>
<path fill-rule="evenodd" fill="rgb(54.101562%, 72.459412%, 74.804688%)" fill-opacity="1" d="M 1245.738281 1386.328125 L 1339.441406 1386.140625 L 1301.730469 1461.710938 L 1274.761719 1491.953125 L 1260.671875 1501.988281 L 1228.589844 1422.5 C 1228.589844 1422.5 1223.839844 1396.359375 1245.738281 1386.328125 "/>
<path fill-rule="evenodd" fill="rgb(29.417419%, 52.539062%, 54.881287%)" fill-opacity="1" d="M 1347.070312 1388.140625 C 1334.558594 1379.539062 1306.03125 1399.320312 1283.371094 1432.324219 C 1260.699219 1465.324219 1252.480469 1499.046875 1264.988281 1507.644531 C 1277.511719 1516.242188 1306.03125 1496.460938 1328.699219 1463.460938 C 1351.371094 1430.457031 1359.589844 1396.738281 1347.070312 1388.140625 "/>
<path fill-rule="evenodd" fill="rgb(54.101562%, 72.459412%, 74.804688%)" fill-opacity="1" d="M 1338.609375 1400.464844 C 1328.671875 1393.640625 1306.03125 1409.339844 1288.039062 1435.535156 C 1270.050781 1461.730469 1263.519531 1488.496094 1273.460938 1495.320312 C 1283.390625 1502.144531 1306.03125 1486.441406 1324.019531 1460.246094 C 1342.011719 1434.054688 1348.539062 1407.285156 1338.609375 1400.464844 "/>
<path fill-rule="evenodd" fill="rgb(29.417419%, 52.539062%, 54.881287%)" fill-opacity="1" d="M 1332.808594 1431.59375 C 1331.730469 1430.855469 1329.28125 1432.554688 1327.339844 1435.386719 C 1325.390625 1438.21875 1324.679688 1441.117188 1325.761719 1441.855469 C 1326.828125 1442.59375 1329.28125 1440.894531 1331.230469 1438.058594 C 1333.179688 1435.226562 1333.878906 1432.332031 1332.808594 1431.59375 "/>
<path fill-rule="evenodd" fill="rgb(29.417419%, 52.539062%, 54.881287%)" fill-opacity="1" d="M 1334.480469 1413.234375 C 1333.398438 1412.496094 1330.949219 1414.195312 1329.011719 1417.03125 C 1327.058594 1419.863281 1326.359375 1422.757812 1327.429688 1423.496094 C 1328.511719 1424.234375 1330.949219 1422.535156 1332.898438 1419.703125 C 1334.851562 1416.871094 1335.550781 1413.976562 1334.480469 1413.234375 "/>
<path fill-rule="evenodd" fill="rgb(29.417419%, 52.539062%, 54.881287%)" fill-opacity="1" d="M 1321.351562 1409.863281 C 1320.269531 1409.125 1317.820312 1410.824219 1315.878906 1413.65625 C 1313.929688 1416.488281 1313.21875 1419.386719 1314.300781 1420.125 C 1315.371094 1420.863281 1317.820312 1419.164062 1319.769531 1416.328125 C 1321.710938 1413.496094 1322.421875 1410.601562 1321.339844 1409.863281 L 1321.351562 1409.863281 "/>
<path fill-rule="evenodd" fill="rgb(29.417419%, 52.539062%, 54.881287%)" fill-opacity="1" d="M 1321.378906 1429.179688 C 1320.300781 1428.441406 1317.851562 1430.140625 1315.910156 1432.972656 C 1313.960938 1435.804688 1313.261719 1438.699219 1314.328125 1439.4375 C 1315.410156 1440.175781 1317.851562 1438.480469 1319.800781 1435.644531 C 1321.75 1432.8125 1322.449219 1429.917969 1321.378906 1429.179688 "/>
<path fill-rule="evenodd" fill="rgb(29.417419%, 52.539062%, 54.881287%)" fill-opacity="1" d="M 1321.261719 1450.320312 C 1320.191406 1449.582031 1317.738281 1451.28125 1315.789062 1454.113281 C 1313.851562 1456.945312 1313.140625 1459.84375 1314.21875 1460.578125 C 1315.289062 1461.320312 1317.738281 1459.621094 1319.691406 1456.785156 C 1321.628906 1453.953125 1322.339844 1451.058594 1321.261719 1450.320312 "/>
<path fill-rule="evenodd" fill="rgb(29.417419%, 52.539062%, 54.881287%)" fill-opacity="1" d="M 1309.589844 1447.894531 C 1308.511719 1447.15625 1306.058594 1448.855469 1304.121094 1451.6875 C 1302.171875 1454.523438 1301.46875 1457.417969 1302.539062 1458.15625 C 1303.621094 1458.894531 1306.058594 1457.195312 1308.011719 1454.363281 C 1309.960938 1451.527344 1310.660156 1448.632812 1309.589844 1447.894531 "/>
<path fill-rule="evenodd" fill="rgb(29.417419%, 52.539062%, 54.881287%)" fill-opacity="1" d="M 1308.460938 1427.199219 C 1307.390625 1426.464844 1304.941406 1428.160156 1302.988281 1430.996094 C 1301.050781 1433.828125 1300.339844 1436.722656 1301.410156 1437.460938 C 1302.488281 1438.199219 1304.941406 1436.503906 1306.878906 1433.667969 C 1308.828125 1430.835938 1309.539062 1427.9375 1308.460938 1427.203125 L 1308.460938 1427.199219 "/>
<path fill-rule="evenodd" fill="rgb(55.271912%, 55.271912%, 100%)" fill-opacity="1" d="M 1296.269531 1450.011719 C 1295.199219 1449.273438 1292.75 1450.972656 1290.800781 1453.804688 C 1288.859375 1456.640625 1288.148438 1459.535156 1289.230469 1460.273438 C 1290.300781 1461.011719 1292.75 1459.3125 1294.699219 1456.480469 C 1296.640625 1453.644531 1297.351562 1450.75 1296.269531 1450.011719 "/>
<path fill-rule="evenodd" fill="rgb(29.417419%, 52.539062%, 54.881287%)" fill-opacity="1" d="M 1287.871094 1466.746094 C 1286.800781 1466.007812 1284.351562 1467.707031 1282.398438 1470.539062 C 1280.460938 1473.375 1279.75 1476.269531 1280.820312 1477.007812 C 1281.898438 1477.746094 1284.351562 1476.046875 1286.289062 1473.214844 C 1288.238281 1470.378906 1288.941406 1467.484375 1287.871094 1466.746094 "/>
<path fill-rule="evenodd" fill="rgb(29.417419%, 52.539062%, 54.881287%)" fill-opacity="1" d="M 1298.320312 1472.214844 C 1297.238281 1471.476562 1294.789062 1473.175781 1292.839844 1476.011719 C 1290.898438 1478.84375 1290.191406 1481.738281 1291.269531 1482.476562 C 1292.339844 1483.214844 1294.789062 1481.515625 1296.738281 1478.683594 C 1298.679688 1475.851562 1299.390625 1472.953125 1298.308594 1472.21875 L 1298.320312 1472.214844 "/>
<path fill-rule="evenodd" fill="rgb(29.417419%, 52.539062%, 54.881287%)" fill-opacity="1" d="M 1074.160156 1384.238281 C 1053.75 1391.761719 1043.851562 1383.199219 1036.628906 1363.171875 C 1027.378906 1337.519531 1046.109375 1295.761719 1077.050781 1285.871094 C 1099.390625 1278.71875 1114.300781 1288.359375 1121.050781 1310.789062 C 1058.441406 1279.730469 1023.671875 1364.191406 1074.160156 1384.238281 "/>
<path fill-rule="evenodd" fill="rgb(29.417419%, 52.539062%, 54.881287%)" fill-opacity="1" d="M 876.410156 1452.304688 C 836.203125 1402.1875 781.046875 1310.511719 809.617188 1209.339844 L 777.914062 1216.179688 C 763.503906 1290.011719 765.761719 1362.78125 847.449219 1463.234375 L 876.410156 1452.304688 "/>
<path fill-rule="evenodd" fill="rgb(29.417419%, 52.539062%, 54.881287%)" fill-opacity="1" d="M 1296.269531 1450.011719 C 1295.199219 1449.273438 1292.75 1450.972656 1290.800781 1453.804688 C 1288.859375 1456.640625 1288.148438 1459.535156 1289.230469 1460.273438 C 1290.300781 1461.011719 1292.75 1459.3125 1294.699219 1456.480469 C 1296.640625 1453.644531 1297.351562 1450.75 1296.269531 1450.011719 "/>
<path fill-rule="evenodd" fill="rgb(81.25%, 52.929688%, 32.542419%)" fill-opacity="1" d="M 948.519531 1159.441406 L 964.738281 1157.269531 L 975.867188 1143.710938 L 970.796875 1120.980469 L 967.796875 1102.011719 L 960.210938 1091.140625 C 960.210938 1091.140625 940.871094 1078.878906 937.535156 1076.660156 C 934.199219 1074.441406 909.566406 1057.308594 909.566406 1057.308594 L 900.816406 1054.769531 L 863.050781 1075.96875 L 848.175781 1092.609375 L 846.023438 1114.449219 L 911.015625 1150.648438 L 948.519531 1159.441406 "/>
<path fill-rule="evenodd" fill="rgb(81.25%, 52.929688%, 32.542419%)" fill-opacity="1" d="M 838.078125 1142.710938 L 864.238281 1158.121094 L 893.664062 1172.988281 L 908.984375 1176.789062 L 928.40625 1178.128906 L 936.871094 1167.460938 L 940.140625 1158.96875 L 907.332031 1119.960938 L 867.445312 1107.710938 L 847.617188 1122.28125 L 838.078125 1142.710938 "/>
<path fill-rule="evenodd" fill="rgb(72.851562%, 43.920898%, 23.535156%)" fill-opacity="1" d="M 964.003906 1096.570312 L 969.738281 1116.078125 L 973.5625 1117.660156 Z M 964.003906 1096.570312 "/>
<path fill-rule="evenodd" fill="rgb(81.25%, 52.929688%, 32.542419%)" fill-opacity="1" d="M 964.589844 1157.289062 L 963.085938 1145.300781 L 961.21875 1139.960938 L 966.632812 1151.300781 L 964.589844 1157.289062 "/>
</svg>
